# xmcd CD database file
#
# Track frame offsets:
#	150
#	13928
#	29380
#	46440
#	59640
#	77543
#	93163
#	111658
#	121748
#	134603
#
# Disc length: 1972 seconds
#
# Revision: 0
# Processed by: cddbd v1.5.2PL0 Copyright (c) Steve Scherf et al.
# Submitted via: CDex 1.70beta2
#
DISCID=8807b20a
DTITLE=Maines jr., John - Borderline
DYEAR=1900
DGENRE=Country
TTITLE0=I Don't Love You Anymore
TTITLE1=Now You're Gone
TTITLE2=Staay With Me Forever
TTITLE3=Without You
TTITLE4=Hangin' On
TTITLE5=Love On The Borderline
TTITLE6=For No Reason At All
TTITLE7=Love Don't Always Last Forever
TTITLE8=Endless Love
TTITLE9=Sure Found A Way To My Heart
EXTD=
EXTT0=
EXTT1=
EXTT2=
EXTT3=
EXTT4=
EXTT5=
EXTT6=
EXTT7=
EXTT8=
EXTT9=
PLAYORDER=
